<svg width="17" height="17" viewBox="0 0 17 17" fill="none" xmlns="http://www.w3.org/2000/svg">
<g clip-path="url(#clip0_211_913)">
<path d="M8.38343 16.9905C13.0136 16.9905 16.7699 13.1848 16.7699 8.49681C16.7699 3.80578 13.0136 0 8.38343 0C3.75325 0 0 3.80578 0 8.49681C0 13.1848 3.75325 16.9905 8.38343 16.9905ZM8.38343 15.0845C4.78874 15.0845 1.88129 12.1388 1.88129 8.49681C1.88129 4.85488 4.78874 1.90604 8.38343 1.90604C11.9781 1.90604 14.8855 4.85488 14.8855 8.49681C14.8855 12.1388 11.9781 15.0845 8.38343 15.0845Z" fill="#F9F8EF"/>
<path d="M11.8941 8.86232C11.8941 6.99093 10.4544 5.47238 8.75655 5.36211C8.6788 5.35896 8.5855 5.36526 8.52022 5.36841L8.95245 4.91789C9.03333 4.81393 9.10796 4.69106 9.10796 4.51149C9.10796 4.21534 8.87781 3.9444 8.5171 3.9444C8.33987 3.9444 8.18442 4.03261 8.07246 4.15233L6.61098 5.65511C6.38706 5.88509 6.38082 6.29465 6.61403 6.5278L8.08488 8.03057C8.18442 8.13452 8.34611 8.20698 8.50468 8.20698C8.83743 8.20698 9.09548 7.97702 9.09548 7.61783C9.09548 7.4824 9.05816 7.35639 8.98352 7.26502L8.42381 6.69478C8.51398 6.69162 8.62282 6.69794 8.7286 6.7042C9.79518 6.7735 10.6192 7.7281 10.6192 8.8749C10.6192 10.1382 9.62724 11.1527 8.37719 11.1527C7.1365 11.1527 6.1414 10.1414 6.1414 8.8749C6.1414 8.5252 5.85221 8.23536 5.49772 8.23536C5.14945 8.23536 4.86337 8.5252 4.86337 8.8749C4.86337 10.8502 6.43368 12.4507 8.37719 12.4507C10.3207 12.4507 11.8941 10.8502 11.8941 8.86232Z" fill="#F9F8EF"/>
</g>
<defs>
<clipPath id="clip0_211_913">
<rect width="17" height="17" fill="white"/>
</clipPath>
</defs>
</svg>
