<svg width="14" height="23" viewBox="0 0 14 23" fill="none" xmlns="http://www.w3.org/2000/svg">
<path d="M14 11.495C13.9898 10.9292 13.7873 10.4775 13.3265 10.0408L3.32499 0.506257C2.97557 0.163789 2.56032 0 2.05392 0C1.03604 0 0.205536 0.794129 0.205536 1.78679C0.205536 2.2732 0.413166 2.73478 0.792969 3.09711L9.66008 11.4851L0.792969 19.8829C0.418228 20.2503 0.205536 20.697 0.205536 21.1983C0.205536 22.191 1.03604 22.995 2.05392 22.995C2.55019 22.995 2.97557 22.8263 3.32499 22.4837L13.3265 12.9493C13.7924 12.5026 14 12.046 14 11.495Z" fill="#F9F8EF"/>
</svg>
