<svg width="18" height="14" viewBox="0 0 18 14" fill="none" xmlns="http://www.w3.org/2000/svg">
<g clip-path="url(#clip0_46_171)">
<path d="M15.6084 0.906723L15.875 0.915512C16.4817 0.957123 16.9665 1.14442 17.3105 1.48387C17.7039 1.87211 17.8975 2.44368 17.8975 3.17235V10.8286C17.8975 11.5576 17.7053 12.1291 17.333 12.5181C16.9601 12.9076 16.4202 13.1001 15.7568 13.1001H3.18652C2.45585 13.1001 1.88001 12.909 1.4873 12.52C1.09444 12.1306 0.900391 11.5578 0.900391 10.8286V3.17235C0.900391 2.44383 1.09244 1.87361 1.46484 1.48582C1.83781 1.09752 2.37775 0.906723 3.04102 0.906723H15.6084ZM10.7402 8.35887C10.3152 8.74273 9.8794 8.92137 9.39453 8.92137C8.90835 8.92126 8.47763 8.74186 8.05273 8.35789V8.35887L7.14941 7.54637L2.93066 11.7651C3.01053 11.7795 3.09747 11.7886 3.19141 11.7886H15.6064C15.7002 11.7886 15.7867 11.7793 15.8662 11.7651L11.6455 7.54344L10.7402 8.35887ZM2.21094 3.19774V10.7358L6.23242 6.72215L2.21387 3.10887C2.21236 3.13762 2.21094 3.16749 2.21094 3.19774ZM12.5615 6.71922L16.583 10.7348V3.20262C16.583 3.16878 16.5809 3.13595 16.5791 3.10399L12.5615 6.71922ZM3.19141 2.21629C3.15013 2.21629 3.10984 2.21836 3.07129 2.22118L8.81543 7.39012L8.96387 7.50731C9.10935 7.60551 9.24975 7.6498 9.39453 7.64989C9.58729 7.64989 9.77771 7.57075 9.97852 7.39012L15.7188 2.2202C15.6826 2.21775 15.645 2.21629 15.6064 2.21629H3.19141Z" fill="currentColor" stroke="currentColor" stroke-width="0.2"/>
</g>
<defs>
<clipPath id="clip0_46_171">
<rect width="18" height="14" fill="white"/>
</clipPath>
</defs>
</svg>
