<svg width="17" height="17" viewBox="0 0 17 17" fill="none" xmlns="http://www.w3.org/2000/svg">
<path d="M3.25 2.75C3.05109 2.75 2.86032 2.82902 2.71967 2.96967C2.57902 3.11032 2.5 3.30109 2.5 3.5V14C2.5 14.1989 2.57902 14.3897 2.71967 14.5303C2.86032 14.671 3.05109 14.75 3.25 14.75C3.44891 14.75 3.63968 14.671 3.78033 14.5303C3.92098 14.3897 4 14.1989 4 14V11.376L4.33 11.293C5.72998 10.9426 7.20914 11.1047 8.5 11.75C9.79 12.395 11.27 12.557 12.67 12.207L14.15 11.837C14.2499 11.812 14.3387 11.7544 14.4021 11.6732C14.4655 11.592 14.5 11.492 14.5 11.389V4.31C14.5 4.24346 14.4848 4.17779 14.4557 4.11798C14.4265 4.05817 14.3841 4.00579 14.3317 3.96483C14.2792 3.92386 14.2181 3.89538 14.153 3.88155C14.088 3.86771 14.0206 3.8689 13.956 3.885L12.669 4.207C11.27 4.558 9.791 4.396 8.5 3.75C7.20911 3.10479 5.72999 2.94269 4.33 3.293L3.99 3.378C3.96108 3.20261 3.87081 3.04318 3.73528 2.92816C3.59974 2.81314 3.42776 2.75 3.25 2.75Z" fill="#E7E1F0" fill-opacity="0.25"/>
</svg>
