<svg width="16" height="17" viewBox="0 0 16 17" fill="none" xmlns="http://www.w3.org/2000/svg">
<g opacity="0.9">
<path fill-rule="evenodd" clip-rule="evenodd" d="M3.757 5.25C3.937 5.467 4.133 5.67 4.343 5.858C4.496 5.248 4.697 4.683 4.939 4.18C4.49539 4.4777 4.09725 4.83811 3.757 5.25ZM8 1.75C7.08053 1.74921 6.16992 1.92974 5.32028 2.28124C4.47065 2.63274 3.69866 3.14833 3.0485 3.7985C2.39833 4.44866 1.88274 5.22065 1.53124 6.07028C1.17974 6.91992 0.999213 7.83053 1 8.75C1 10.1345 1.41055 11.4879 2.17972 12.639C2.94889 13.7901 4.04214 14.6873 5.32122 15.2172C6.6003 15.747 8.00777 15.8856 9.36563 15.6155C10.7235 15.3454 11.9708 14.6787 12.9497 13.6997C13.9287 12.7208 14.5954 11.4735 14.8655 10.1156C15.1356 8.75777 14.997 7.3503 14.4672 6.07122C13.9373 4.79214 13.0401 3.69889 11.889 2.92972C10.7379 2.16055 9.38447 1.75 8 1.75ZM8 3.25C7.524 3.25 6.909 3.636 6.367 4.677C6.074 5.241 5.836 5.944 5.684 6.74C6.40952 7.07701 7.20003 7.25109 8 7.25C8.79997 7.25109 9.59048 7.07701 10.316 6.74C10.164 5.944 9.926 5.241 9.633 4.677C9.09 3.636 8.476 3.25 8 3.25ZM11.657 5.858C11.5154 5.28 11.3157 4.71781 11.061 4.18C11.505 4.478 11.903 4.839 12.243 5.25C12.063 5.467 11.867 5.67 11.657 5.858ZM10.491 8.294C9.6954 8.59655 8.85119 8.75109 8 8.75C7.14915 8.75097 6.30529 8.59643 5.51 8.294C5.47111 9.16566 5.53894 10.0388 5.712 10.894C6.432 11.125 7.202 11.25 8 11.25C8.798 11.25 9.568 11.125 10.29 10.894C10.4624 10.0387 10.5295 9.16558 10.49 8.294H10.491ZM11.924 10.144C12.0199 9.27728 12.0259 8.40297 11.942 7.535C12.347 7.259 12.722 6.941 13.059 6.588C13.3643 7.30229 13.5143 8.07334 13.499 8.85C13.035 9.35032 12.5051 9.7853 11.924 10.143V10.144ZM9.752 12.579C8.59517 12.8074 7.40484 12.8074 6.248 12.579C6.287 12.663 6.326 12.745 6.368 12.823C6.907 13.864 7.523 14.25 8 14.25C8.477 14.25 9.091 13.864 9.633 12.823C9.673 12.745 9.713 12.663 9.753 12.579H9.752ZM11.062 13.319C11.2611 12.9005 11.4257 12.4664 11.554 12.021C12.011 11.824 12.447 11.591 12.861 11.325C12.4343 12.128 11.816 12.8132 11.061 13.32L11.062 13.319ZM4.939 13.319C4.73958 12.9005 4.57469 12.4664 4.446 12.021C3.99193 11.8254 3.55478 11.5926 3.139 11.325C3.56572 12.128 4.184 12.8122 4.939 13.319ZM2.5 8.85C2.963 9.35 3.493 9.785 4.075 10.143C3.97918 9.27661 3.97315 8.40263 4.057 7.535C3.65275 7.25904 3.27839 6.94166 2.94 6.588C2.63467 7.30229 2.48469 8.07334 2.5 8.85Z" fill="#C9C3D2"/>
</g>
</svg>
