<svg width="17" height="11" viewBox="0 0 17 11" fill="none" xmlns="http://www.w3.org/2000/svg">
<path d="M0.223037 4.95981C-0.056188 5.28862 -0.0901122 5.73747 0.217818 6.0454L2.29504 8.12264C2.60036 8.43054 3.07531 8.4175 3.38063 8.11741L4.34356 7.15707L5.78405 8.59755C6.08676 8.89507 6.56171 8.89245 6.86966 8.58975L8.18225 7.28234C9.09823 9.09859 10.617 10.1111 12.3967 10.1111C14.9437 10.1111 17 8.05477 17 5.5026C17 2.93739 14.9541 0.88887 12.3967 0.88887C10.5804 0.88887 8.95206 1.92226 8.20314 3.56369H1.90882C1.6583 3.56369 1.36603 3.64459 1.18336 3.86118L0.223037 4.95981ZM1.50434 5.5026L2.23763 4.7641H9.15301C9.47399 3.27925 10.8075 2.178 12.3967 2.178C14.226 2.178 15.7031 3.66024 15.7031 5.5026C15.7031 7.33974 14.2287 8.81416 12.3967 8.81416C10.8205 8.81416 9.47137 7.7077 9.11127 6.00103H7.62119L6.32164 7.298L4.98552 5.94623H3.71465L2.84566 6.82566L1.50434 5.5026ZM12.5637 5.5026C12.5637 6.09759 13.0517 6.58035 13.6467 6.58035C14.2417 6.58035 14.7218 6.09759 14.7218 5.5026C14.7218 4.89979 14.2443 4.42485 13.6467 4.42485C13.0517 4.42485 12.5637 4.90501 12.5637 5.5026Z" fill="#F9F8EF"/>
</svg>
