<svg width="50" height="50" viewBox="0 0 50 50" fill="none" xmlns="http://www.w3.org/2000/svg">
<path d="M28.4248 0C28.6852 0.000229075 28.8963 0.206042 28.8965 0.459961V6.58789C29.3803 6.77203 29.7236 7.23086 29.7236 7.76758V12.8633C30.0038 12.9666 30.2792 13.0794 30.5498 13.2002V8.51562C30.5498 7.97904 30.8923 7.52016 31.376 7.33594V1.49609C31.376 1.24188 31.5879 1.03613 31.8486 1.03613C32.1095 1.03616 32.3213 1.2419 32.3213 1.49609V7.33594C32.805 7.52014 33.1475 7.97902 33.1475 8.51562V14.7305C33.4323 14.9448 33.7087 15.1696 33.9746 15.4053V11.3926C33.9746 10.8559 34.317 10.397 34.8008 10.2129V3.33691C34.8009 3.08281 35.0128 2.87695 35.2734 2.87695C35.5341 2.8772 35.745 3.08296 35.7451 3.33691V10.2129C36.2289 10.397 36.5723 10.8559 36.5723 11.3926V18.5508C36.8863 19.0825 37.1627 19.6381 37.3984 20.2139V14.2695C37.3984 13.733 37.741 13.2741 38.2246 13.0898V5.06348C38.2246 4.8093 38.4364 4.60259 38.6973 4.60254C38.9582 4.60254 39.1699 4.80926 39.1699 5.06348V13.0898C39.6537 13.274 39.9961 13.7329 39.9961 14.2695V36.1914C39.996 36.7278 39.6535 37.186 39.1699 37.3701V45.2822C39.1698 45.5362 38.9581 45.7422 38.6973 45.7422C38.4365 45.7421 38.2248 45.5362 38.2246 45.2822V37.3701C37.7411 37.1859 37.3986 36.7277 37.3984 36.1914V29.8438C37.1627 30.4195 36.8863 30.975 36.5723 31.5068V39.2979C36.5723 39.8346 36.2289 40.2934 35.7451 40.4775V47.2959C35.745 47.5499 35.5341 47.7556 35.2734 47.7559C35.0127 47.7559 34.8009 47.5501 34.8008 47.2959V40.4775C34.317 40.2934 33.9746 39.8346 33.9746 39.2979V34.6523C33.7087 34.8881 33.4323 35.1127 33.1475 35.3271V41.8301C33.1473 42.3666 32.8049 42.8255 32.3213 43.0098V48.6768C32.3212 48.931 32.1095 49.1367 31.8486 49.1367C31.5879 49.1367 31.3761 48.931 31.376 48.6768V43.0098C30.8924 42.8255 30.55 42.3666 30.5498 41.8301V36.8574C30.2792 36.9783 30.0038 37.091 29.7236 37.1943V43.0381C29.7236 43.5747 29.3803 44.0337 28.8965 44.2178V49.54C28.8963 49.794 28.6852 49.9998 28.4248 50C28.164 50 27.9524 49.7941 27.9521 49.54V44.2178C27.4683 44.0337 27.125 43.5747 27.125 43.0381V37.8682C26.8522 37.9106 26.5769 37.9454 26.2988 37.9717V43.0381C26.2988 43.5746 25.9563 44.0336 25.4727 44.2178V49.54C25.4724 49.7941 25.2606 50 25 50C24.7392 50 24.5276 49.7941 24.5273 49.54V44.2178C24.0436 44.0336 23.7012 43.5746 23.7012 43.0381V37.9717C23.4233 37.9454 23.1476 37.9106 22.875 37.8682V43.0381C22.875 43.5747 22.5317 44.0337 22.0479 44.2178V49.54C22.0476 49.7941 21.836 50 21.5752 50C21.3148 49.9998 21.1037 49.794 21.1035 49.54V44.2178C20.6197 44.0337 20.2764 43.5747 20.2764 43.0381V37.1943C19.9962 37.091 19.7208 36.9783 19.4502 36.8574V41.8301C19.45 42.3666 19.1076 42.8255 18.624 43.0098V48.6768C18.6239 48.9309 18.4121 49.1367 18.1514 49.1367C17.8906 49.1367 17.6788 48.931 17.6787 48.6768V43.0098C17.195 42.8255 16.8527 42.3667 16.8525 41.8301V35.3271C16.5677 35.1127 16.2913 34.8881 16.0254 34.6523V39.2979C16.0254 39.8346 15.6831 40.2934 15.1992 40.4775V47.2959C15.1991 47.5501 14.9874 47.7559 14.7266 47.7559C14.4659 47.7557 14.255 47.55 14.2549 47.2959V40.4775C13.7711 40.2934 13.4277 39.8346 13.4277 39.2979V31.5068C13.1136 30.975 12.8372 30.4195 12.6016 29.8438V36.1914C12.6014 36.7279 12.2581 37.186 11.7744 37.3701V45.2822C11.7743 45.5362 11.5634 45.7421 11.3027 45.7422C11.042 45.7422 10.8302 45.5362 10.8301 45.2822V37.3701C10.3465 37.186 10.004 36.7278 10.0039 36.1914V14.2695C10.0039 13.7329 10.3463 13.274 10.8301 13.0898V5.06348C10.8301 4.80926 11.0419 4.60254 11.3027 4.60254C11.5635 4.60264 11.7744 4.80932 11.7744 5.06348V13.0898C12.2582 13.274 12.6016 13.7328 12.6016 14.2695V20.2139C12.8372 19.6381 13.1136 19.0825 13.4277 18.5508V11.3926C13.4277 10.8559 13.7711 10.397 14.2549 10.2129V3.33691C14.255 3.08292 14.4659 2.87713 14.7266 2.87695C14.9873 2.87695 15.1991 3.08281 15.1992 3.33691V10.2129C15.6831 10.397 16.0254 10.8559 16.0254 11.3926V15.4053C16.2913 15.1696 16.5677 14.9448 16.8525 14.7305V8.51562C16.8525 7.979 17.195 7.52013 17.6787 7.33594V1.49609C17.6787 1.24188 17.8905 1.03613 18.1514 1.03613C18.4122 1.03619 18.624 1.24191 18.624 1.49609V7.33594C19.1077 7.52017 19.4502 7.97906 19.4502 8.51562V13.2002C19.7208 13.0794 19.9962 12.9666 20.2764 12.8633V7.76758C20.2764 7.23086 20.6197 6.77203 21.1035 6.58789V0.459961C21.1037 0.206027 21.3147 0.000203913 21.5752 0C21.836 0 22.0477 0.205901 22.0479 0.459961V6.58789C22.5317 6.77203 22.875 7.23086 22.875 7.76758V12.1895C23.1476 12.1469 23.4233 12.1121 23.7012 12.0859V7.76758C23.7012 7.23092 24.0436 6.77207 24.5273 6.58789V0.459961C24.5275 0.205901 24.7392 0 25 0C25.2606 1.25962e-05 25.4725 0.205908 25.4727 0.459961V6.58789C25.9563 6.77212 26.2988 7.23099 26.2988 7.76758V12.0859C26.5769 12.1121 26.8522 12.1469 27.125 12.1895V7.76758C27.125 7.23086 27.4683 6.77203 27.9521 6.58789V0.459961C27.9523 0.205901 28.164 0 28.4248 0ZM6.86523 7.36426C7.12608 7.36426 7.33789 7.57098 7.33789 7.8252V17.2324C7.8217 17.4165 8.16504 17.8753 8.16504 18.4121V31.4727C8.16504 32.0094 7.8217 32.4681 7.33789 32.6523V42.1748C7.33789 42.4291 7.12608 42.6348 6.86523 42.6348C6.60459 42.6345 6.39355 42.4289 6.39355 42.1748V32.6523C5.90974 32.4681 5.56641 32.0094 5.56641 31.4727V18.4121C5.56641 17.8753 5.90974 17.4165 6.39355 17.2324V7.8252C6.39355 7.57114 6.60459 7.36451 6.86523 7.36426ZM43.1338 7.36426C43.3945 7.36426 43.6064 7.57098 43.6064 7.8252V17.2324C44.0901 17.4166 44.4326 17.8754 44.4326 18.4121V31.4727C44.4326 32.0093 44.0901 32.468 43.6064 32.6523V42.1748C43.6064 42.4291 43.3945 42.6348 43.1338 42.6348C42.8729 42.6347 42.6611 42.4291 42.6611 42.1748V32.6523C42.1775 32.468 41.835 32.0093 41.835 31.4727V18.4121C41.835 17.8754 42.1775 17.4166 42.6611 17.2324V7.8252C42.6611 7.57102 42.8729 7.36432 43.1338 7.36426ZM3.25586 11.335C3.51663 11.335 3.72839 11.5408 3.72852 11.7949V38.2051C3.72836 38.4592 3.51661 38.665 3.25586 38.665C2.99512 38.665 2.78336 38.4592 2.7832 38.2051V11.7949C2.78333 11.5408 2.9951 11.335 3.25586 11.335ZM46.7441 11.335C47.0048 11.335 47.2167 11.5408 47.2168 11.7949V38.2051C47.2166 38.4592 47.0048 38.665 46.7441 38.665C46.4833 38.665 46.2716 38.4592 46.2715 38.2051V11.7949C46.2716 11.5408 46.4833 11.335 46.7441 11.335ZM25.2939 15C19.6088 15.0001 15.0001 19.6088 15 25.2939C15 30.9792 19.6087 35.5878 25.2939 35.5879C30.9792 35.5879 35.5879 30.9792 35.5879 25.2939C35.5878 19.6087 30.9792 15 25.2939 15ZM0.472656 19.8789C0.73336 19.8791 0.944336 20.0857 0.944336 20.3398V29.6602C0.944336 29.9142 0.73336 30.1209 0.472656 30.1211C0.2118 30.1211 0 29.9143 0 29.6602V20.3398C0 20.0856 0.2118 19.8789 0.472656 19.8789ZM49.5273 19.8789C49.7883 19.8789 50 20.0856 50 20.3398V29.6602C50 29.9143 49.7883 30.1211 49.5273 30.1211C49.2667 30.121 49.0557 29.9142 49.0557 29.6602V20.3398C49.0557 20.0856 49.2667 19.879 49.5273 19.8789ZM25.2939 20.8828C27.7304 20.8828 29.706 22.8575 29.7061 25.2939C29.7061 27.7305 27.7305 29.7061 25.2939 29.7061C22.8574 29.706 20.8818 27.7305 20.8818 25.2939C20.8819 22.8575 22.8575 20.8828 25.2939 20.8828Z" fill="currentColor"/>
</svg>
