<svg width="8" height="7" viewBox="0 0 8 7" fill="none" xmlns="http://www.w3.org/2000/svg">
<g clip-path="url(#clip0_281_826)">
<path d="M1.08073 7.00001H6.81306C7.46898 7.00001 7.8938 6.5235 7.8938 5.95365C7.8938 5.77251 7.84501 5.5872 7.74454 5.41582L4.87693 0.550365C4.66882 0.197856 4.31145 0.0250854 3.94833 0.0250854C3.58235 0.0250854 3.2221 0.202036 3.01831 0.550365L0.1507 5.41722C0.0487981 5.58997 0 5.77251 0 5.95365C0 6.5235 0.424829 7.00001 1.08073 7.00001ZM1.21708 6.21837C1.0061 6.21837 0.875495 6.05815 0.875495 5.8798C0.875495 5.82268 0.891282 5.75023 0.924291 5.68751L3.65698 1.02827C3.72011 0.919595 3.83781 0.876401 3.94833 0.876401C4.05885 0.876401 4.17222 0.92238 4.23394 1.02967L6.96949 5.6931C7.0025 5.75579 7.01831 5.82407 7.01831 5.8798C7.01831 6.05815 6.88625 6.21837 6.67529 6.21837H1.21708Z" fill="#FFCC00"/>
<path d="M3.94832 4.44607C4.16504 4.44607 4.29423 4.32762 4.30428 4.10191L4.3588 2.52886C4.3703 2.29757 4.1952 2.13455 3.94403 2.13455C3.69142 2.13455 3.52062 2.29478 3.53067 2.52607L3.58378 4.10608C3.59384 4.32623 3.72299 4.44607 3.94832 4.44607ZM3.94832 5.65268C4.20522 5.65268 4.4076 5.48686 4.4076 5.24583C4.4076 5.00479 4.20666 4.83758 3.94832 4.83758C3.68854 4.83758 3.48476 5.00479 3.48476 5.24583C3.48476 5.48546 3.69142 5.65268 3.94832 5.65268Z" fill="#FFCC00"/>
</g>
<defs>
<clipPath id="clip0_281_826">
<rect width="8" height="7" fill="white"/>
</clipPath>
</defs>
</svg>
