<svg width="17" height="17" viewBox="0 0 17 17" fill="none" xmlns="http://www.w3.org/2000/svg">
<g clip-path="url(#clip0_211_989)">
<path d="M13.214 11.885L13.8162 11.9801C14.0998 12.0236 14.3591 12.195 14.5292 12.4451L16.0173 14.6827C16.1928 14.9464 16.2063 15.24 16.0065 15.444L14.613 16.8415C14.4104 17.0481 14.1268 17.0481 13.8595 16.8686L11.6341 15.357C11.3911 15.1911 11.2128 14.9301 11.1696 14.6419L11.0724 14.0383L8.49441 11.4478C8.72439 11.1345 8.986 10.8001 9.28086 10.4459L12.3066 13.4945L12.447 14.283L14.1106 15.5527L14.7156 14.9464L13.4598 13.258L12.6739 13.1302L9.61393 10.0571C9.86526 9.7607 10.1483 9.44598 10.4607 9.11556L13.214 11.885ZM5.09584 1.54516L8.67539 5.15093C8.72854 5.42984 8.81145 5.70486 8.92267 5.97147C8.70996 6.18757 8.50277 6.39298 8.30443 6.58185L4.1479 2.38801C3.67529 1.91493 3.20538 1.91221 2.74357 2.37442L1.63629 3.50274C1.17989 3.9731 1.16909 4.42715 1.6444 4.90839L5.60301 8.8959C5.22312 9.17631 4.86997 9.41764 4.54109 9.63034L0.804497 5.85999C-0.262262 4.78876 -0.264962 3.62509 0.777489 2.57561L1.82534 1.51797C2.8678 0.465778 4.03178 0.473935 5.09584 1.54516ZM2.96502 4.1172L5.44692 6.61855C5.59543 6.76811 5.59006 6.99646 5.44692 7.13784C5.30649 7.27649 5.06883 7.28467 4.92569 7.13511L2.44649 4.64738C2.30336 4.50056 2.30876 4.25859 2.4546 4.11449C2.59773 3.97854 2.83539 3.97854 2.96502 4.1172ZM3.88054 3.19823L6.36246 5.69144C6.50825 5.83822 6.5056 6.07476 6.35704 6.22432C6.22468 6.35757 5.97894 6.37115 5.8358 6.22159L3.36742 3.72025C3.22698 3.57615 3.22158 3.33961 3.37552 3.19551C3.51595 3.05957 3.7374 3.05685 3.88054 3.19823Z" fill="currentColor" fill-opacity="1"/>
<path d="M1.30412 15.9796C2.55992 17.233 4.26944 17.1976 5.46312 15.9878C6.90527 14.5277 7.12401 12.4152 11.2452 8.30695C12.7279 8.93504 14.4833 8.66855 15.6581 7.48586C16.9922 6.14821 17.1812 4.00845 16.1037 2.35267L14.189 4.27762C14.0107 4.45163 13.8244 4.45435 13.6434 4.27762L12.9358 3.568C12.7522 3.3804 12.7468 3.18464 12.9196 3.00791L14.8344 1.08296C13.1951 -0.00457987 11.0751 0.18574 9.74363 1.53158C8.56615 2.71428 8.29879 4.4761 8.92268 5.97147C4.78796 10.1721 2.74087 10.3352 1.29061 11.7844C0.0888252 12.9888 0.0537169 14.7099 1.30412 15.9796ZM10.7105 6.50708C9.54922 5.33797 9.50602 3.50003 10.6078 2.39617C11.2047 1.79802 12.0365 1.53701 12.844 1.64033L11.9906 2.49677C11.4748 3.01607 11.491 3.68219 12.0257 4.20965L13.0033 5.18572C13.53 5.71043 14.189 5.72407 14.6913 5.22106L15.5501 4.35375C15.6527 5.17756 15.3961 6.01496 14.7966 6.62128C13.6947 7.72513 11.8772 7.67345 10.7105 6.50708ZM2.18723 15.0878C1.43915 14.3211 1.48776 13.3804 2.17643 12.6843C3.66179 11.1971 5.01212 11.4636 9.54922 7.0291C9.64103 7.14876 9.74098 7.26291 9.84629 7.37438C9.95702 7.48046 10.0705 7.58648 10.192 7.67345C5.78448 12.2438 6.05455 13.6033 4.57731 15.0987C3.88594 15.792 2.94071 15.8409 2.18723 15.0878ZM3.35932 14.7099C3.79412 14.7099 4.1425 14.3564 4.1425 13.9214C4.1425 13.4864 3.79412 13.1329 3.35932 13.1329C2.92991 13.1329 2.57883 13.4864 2.57883 13.9214C2.57883 14.3564 2.92991 14.7099 3.35932 14.7099Z" fill="currentColor" fill-opacity="1"/>
</g>
<defs>
<clipPath id="clip0_211_989">
<rect width="17" height="17" fill="white"/>
</clipPath>
</defs>
</svg>
