<svg width="17" height="18" viewBox="0 0 17 18" fill="none" xmlns="http://www.w3.org/2000/svg">
<g clip-path="url(#clip0_46_137)">
<path d="M1.11288 14.1603L7.68402 17.8175C8.12821 18.0582 8.56285 18.0635 9.00704 17.8175L15.577 14.1603C16.3313 13.7402 16.6911 13.2969 16.6911 12.2244V5.44507C16.6911 4.65949 16.3883 4.15927 15.7226 3.78975L9.75745 0.448419C8.8259 -0.0752137 7.86509 -0.0752137 6.92838 0.448419L0.968476 3.78975C0.302745 4.15927 0 4.65949 0 5.44507V12.2244C0 13.2969 0.35979 13.7402 1.11288 14.1603ZM1.90971 13.064C1.43621 12.8028 1.29437 12.5422 1.29437 12.0991V5.88722L7.67747 9.46374V16.292L1.90971 13.064ZM14.7814 13.064L9.01359 16.292V9.46374L15.3967 5.88722V12.0991C15.3967 12.5422 15.2548 12.8028 14.7814 13.064ZM8.3455 8.28145L2 4.74787L4.52916 3.3197L10.8887 6.86787L8.3455 8.28145ZM12.2485 6.11324L5.87789 2.56917L7.52679 1.64571C8.07923 1.33516 8.61065 1.32762 9.16309 1.64571L14.691 4.74787L12.2485 6.11324Z" fill="currentColor"/>
</g>
<defs>
<clipPath id="clip0_46_137">
<rect width="17" height="18" fill="white"/>
</clipPath>
</defs>
</svg>
