<svg width="17" height="17" viewBox="0 0 17 17" fill="none" xmlns="http://www.w3.org/2000/svg">
<g clip-path="url(#clip0_211_901)">
<path d="M12.5254 4.29095V5.34006H13.5639V4.29095H12.5254ZM11.493 5.34006V6.39232H12.5254V5.34006H11.493ZM10.4544 6.39232V7.44142H11.493V6.39232H10.4544ZM9.41581 7.44142V8.49055H10.4544V7.44142H9.41581ZM8.37719 8.49055V9.54593H9.41581V8.49055H8.37719ZM7.33856 9.54593V10.5982H8.37719V9.54593H7.33856ZM6.3031 10.5982V11.6473H7.33856V10.5982H6.3031ZM5.26761 11.6473V12.6996H6.3031V11.6473H5.26761ZM4.22901 12.6996V13.7487H5.26761V12.6996H4.22901ZM5.26761 14.634L5.47284 14.7978H6.3031V13.7487H5.26761V14.634ZM6.3031 12.6996V13.7487H7.33856V12.6996H6.3031ZM7.33856 11.6473V12.6996H8.37719V11.6473H7.33856ZM8.37719 10.5982V11.6473H9.41581V10.5982H8.37719ZM9.41581 9.54593V10.5982H10.4544V9.54593H9.41581ZM10.4544 8.49055V9.54593H11.493V8.49055H10.4544ZM11.493 7.44142V8.49055H12.5254V7.44142H11.493ZM12.5254 6.39232V7.44142H13.5639V6.39232H12.5254ZM14.5994 6.37027V7.44142H15.4981V6.37027H14.5994ZM13.5639 7.44142V8.49055H14.5994V7.44142H13.5639ZM12.5254 8.49055V9.54593H13.5639V8.49055H12.5254ZM11.493 9.54593V10.5982H12.5254V9.54593H11.493ZM10.4544 10.5982V11.6473H11.493V10.5982H10.4544ZM9.41581 11.6473V12.6996H10.4544V11.6473H9.41581ZM8.37719 12.6996V13.7487H9.41581V12.6996H8.37719ZM7.33856 13.7487V14.7978H8.37719V13.7487H7.33856ZM6.28444 14.7978V15.702H7.33856V14.7978H6.28444ZM8.37719 14.7978V15.7429H9.41581V14.7978H8.37719ZM9.41581 13.7487V14.7978H10.4544V13.7487H9.41581ZM10.4544 12.6996V13.7487H11.493V12.6996H10.4544ZM11.493 11.6473V12.6996H12.5254V11.6473H11.493ZM12.5254 10.5982V11.6473H13.5639V10.5982H12.5254ZM13.5639 9.54593V10.5982H14.5994V9.54593H13.5639ZM14.5994 8.49055V9.54593H15.5385V8.49055H14.5994ZM13.5639 11.6473V12.6996H14.4253L14.5715 11.6473H13.5639ZM12.5254 12.6996V13.7487H13.4116L13.5639 13.6038V12.6996H12.5254ZM11.493 13.7487V14.7694L12.5254 14.6213V13.7487H11.493ZM14.5994 5.5984L14.3569 5.34006H13.5639V6.39232H14.5994V5.5984ZM8.38343 16.9905C13.0136 16.9905 16.7699 13.1848 16.7699 8.49681C16.7699 3.80578 13.0136 0 8.38343 0C3.75325 0 0 3.80578 0 8.49681C0 13.1848 3.75325 16.9905 8.38343 16.9905ZM8.38343 15.0845C4.78874 15.0845 1.88129 12.1388 1.88129 8.49681C1.88129 4.85488 4.78874 1.90604 8.38343 1.90604C11.9781 1.90604 14.8855 4.85488 14.8855 8.49681C14.8855 12.1388 11.9781 15.0845 8.38343 15.0845Z" fill="#F9F8EF"/>
</g>
<defs>
<clipPath id="clip0_211_901">
<rect width="17" height="17" fill="white"/>
</clipPath>
</defs>
</svg>
