<svg width="8" height="8" viewBox="0 0 8 8" fill="none" xmlns="http://www.w3.org/2000/svg">
<g clip-path="url(#clip0_281_825)">
<path d="M3.94514 7.99554C6.12403 7.99554 7.89172 6.20459 7.89172 3.9985C7.89172 1.79095 6.12403 0 3.94514 0C1.76623 0 0 1.79095 0 3.9985C0 6.20459 1.76623 7.99554 3.94514 7.99554ZM3.94514 7.09858C2.25352 7.09858 0.885313 5.71238 0.885313 3.9985C0.885313 2.28465 2.25352 0.896959 3.94514 0.896959C5.63674 0.896959 7.00494 2.28465 7.00494 3.9985C7.00494 5.71238 5.63674 7.09858 3.94514 7.09858Z" fill="#34C759"/>
<path d="M3.54419 5.8191C3.68759 5.8191 3.81343 5.74647 3.89536 5.61898L5.56502 3.00222C5.61918 2.91919 5.65724 2.82727 5.65724 2.74276C5.65724 2.53965 5.47868 2.39732 5.287 2.39732C5.16116 2.39732 5.05142 2.467 4.96798 2.60488L3.53541 4.92809L2.85349 4.07856C2.76423 3.96737 2.67204 3.92289 2.55497 3.92289C2.35596 3.92289 2.19499 4.08448 2.19499 4.28612C2.19499 4.38398 2.22865 4.46848 2.30035 4.55891L3.18126 5.62341C3.28517 5.75239 3.39785 5.8191 3.54419 5.8191Z" fill="#34C759"/>
</g>
<defs>
<clipPath id="clip0_281_825">
<rect width="8" height="8" fill="white"/>
</clipPath>
</defs>
</svg>
