<svg width="17" height="15" viewBox="0 0 17 15" fill="none" xmlns="http://www.w3.org/2000/svg">
<g clip-path="url(#clip0_281_989)">
<path d="M5.75676 11.4351H13.9592C14.3359 11.4351 14.6798 11.1561 14.6798 10.7404C14.6798 10.3219 14.3359 10.051 13.9592 10.051H5.956C5.67487 10.051 5.49742 9.85781 5.45375 9.56275L4.34826 2.01449C4.25818 1.37339 3.96338 1.04614 3.1445 1.04614H0.775208C0.354849 1.04614 0 1.40022 0 1.81867C0 2.23981 0.354849 2.59121 0.775208 2.59121H2.8306L3.89242 9.70224C4.05346 10.7833 4.64852 11.4351 5.75676 11.4351ZM4.6103 8.81706H14.0411C15.1548 8.81706 15.7471 8.16794 15.9109 7.06813L16.4077 3.77951C16.4213 3.68294 16.4404 3.55955 16.4404 3.47103C16.4404 3.00698 16.1265 2.6824 15.5451 2.6824H3.93609L3.94428 4.06652H14.7644L14.3605 6.95276C14.3168 7.25051 14.1612 7.43296 13.8746 7.43296H4.59938L4.6103 8.81706ZM6.39002 15C7.11608 15 7.69473 14.434 7.69473 13.7178C7.69473 13.007 7.11608 12.4356 6.39002 12.4356C5.66939 12.4356 5.08252 13.007 5.08252 13.7178C5.08252 14.434 5.66939 15 6.39002 15ZM12.7909 15C13.517 15 14.0984 14.434 14.0984 13.7178C14.0984 13.007 13.517 12.4356 12.7909 12.4356C12.0676 12.4356 11.4807 13.007 11.4807 13.7178C11.4807 14.434 12.0676 15 12.7909 15Z" fill="#F9F8EF"/>
</g>
<defs>
<clipPath id="clip0_281_989">
<rect width="17" height="15" fill="white"/>
</clipPath>
</defs>
</svg>
