<svg width="8" height="8" viewBox="0 0 8 8" fill="none" xmlns="http://www.w3.org/2000/svg">
<g clip-path="url(#clip0_281_890)">
<path d="M3.94514 7.99554C6.12403 7.99554 7.89172 6.20459 7.89172 3.9985C7.89172 1.79095 6.12403 0 3.94514 0C1.76623 0 0 1.79095 0 3.9985C0 6.20459 1.76623 7.99554 3.94514 7.99554ZM3.94514 7.09858C2.25352 7.09858 0.885313 5.71238 0.885313 3.9985C0.885313 2.28465 2.25352 0.896959 3.94514 0.896959C5.63674 0.896959 7.00494 2.28465 7.00494 3.9985C7.00494 5.71238 5.63674 7.09858 3.94514 7.09858Z" fill="#7F7F7F"/>
<path d="M2.09695 4.53818H3.94221C4.12951 4.53818 4.27438 4.3914 4.27438 4.20312V1.75834C4.27438 1.57153 4.12951 1.42476 3.94221 1.42476C3.75927 1.42476 3.61297 1.57153 3.61297 1.75834V3.86806H2.09695C1.90964 3.86806 1.76624 4.01629 1.76624 4.20312C1.76624 4.3914 1.90964 4.53818 2.09695 4.53818Z" fill="#7F7F7F"/>
</g>
<defs>
<clipPath id="clip0_281_890">
<rect width="8" height="8" fill="white"/>
</clipPath>
</defs>
</svg>
