<svg width="17" height="14" viewBox="0 0 17 14" fill="none" xmlns="http://www.w3.org/2000/svg">
<g clip-path="url(#clip0_281_356)">
<path d="M1.82152 6.34501C2.82152 6.34501 3.6357 5.5219 3.6357 4.50107C3.6357 3.49506 2.82152 2.66702 1.82152 2.66702C0.814183 2.66702 0 3.49012 0 4.50107C0 5.5219 0.81907 6.34501 1.82152 6.34501ZM1.82152 5.14371C1.47188 5.14371 1.18582 4.857 1.18582 4.50107C1.18582 4.14761 1.47188 3.86583 1.82152 3.86583C2.16626 3.86583 2.44988 4.15502 2.44988 4.50107C2.44988 4.857 2.17359 5.14371 1.82152 5.14371ZM8.41077 3.6755C9.41319 3.6755 10.2274 2.84993 10.2274 1.83404C10.2274 0.823096 9.41319 0 8.41077 0C7.40585 0 6.58925 0.820621 6.58925 1.83404C6.58925 2.84993 7.4083 3.6755 8.41077 3.6755ZM8.41077 2.4767C8.06111 2.4767 7.77504 2.18503 7.77504 1.83404C7.77504 1.47811 8.06111 1.19633 8.41077 1.19633C8.75552 1.19633 9.03914 1.48553 9.03914 1.83404C9.03914 2.18503 8.76283 2.4767 8.41077 2.4767ZM14.9976 6.34501C16 6.34501 16.8191 5.5219 16.8191 4.50107C16.8191 3.49012 16.0024 2.66702 14.9976 2.66702C13.9951 2.66702 13.1809 3.49506 13.1809 4.50107C13.1809 5.5219 13.9951 6.34501 14.9976 6.34501ZM14.9976 5.14371C14.6455 5.14371 14.3667 4.857 14.3667 4.50107C14.3667 4.15502 14.6528 3.86583 14.9976 3.86583C15.3447 3.86583 15.6308 4.14761 15.6308 4.50107C15.6308 4.857 15.3447 5.14371 14.9976 5.14371ZM2.45232 5.90997L4.5599 7.18047C5.16136 7.53887 5.90465 7.46719 6.36187 6.83933L8.85332 3.4654L7.60389 2.91914L5.41078 5.89761C5.31298 6.0311 5.20292 6.05829 5.03668 5.95198L3.15403 4.77296L2.45232 5.90997ZM14.3863 5.93224L13.6846 4.79521L11.8191 5.96433C11.6381 6.0756 11.5208 6.04837 11.4157 5.90258L9.23958 2.94139L7.9902 3.48518L10.4914 6.87891C10.9364 7.48693 11.6748 7.56357 12.242 7.22496L14.3863 5.93224ZM3.30807 10.6804H13.511V9.34322H3.30807V10.6804ZM1.69193 6.08051L3.01467 11.5233C3.27873 12.6257 3.88997 13.172 4.99755 13.172H11.824C12.934 13.172 13.5452 12.6257 13.8093 11.5233L15.132 6.08051L13.9022 5.51451L12.5037 11.3132C12.4205 11.6568 12.1981 11.8323 11.8313 11.8323H4.99266C4.62592 11.8323 4.40342 11.6568 4.31785 11.3132L2.91932 5.51451L1.69193 6.08051Z" fill="#F9F8EF"/>
</g>
<defs>
<clipPath id="clip0_281_356">
<rect width="17" height="14" fill="white"/>
</clipPath>
</defs>
</svg>
