<svg width="17" height="14" viewBox="0 0 17 14" fill="none" xmlns="http://www.w3.org/2000/svg">
<g clip-path="url(#clip0_211_988)">
<path d="M15.7165 12.1377C15.7165 12.5693 15.3532 12.9242 14.9106 12.9242H4.10896L5.73028 11.3564H14.9106C15.3532 11.3564 15.7165 11.7086 15.7165 12.1377Z" fill="white" fill-opacity="0.85"/>
<path d="M3.26963 12.2701L11.5366 4.25371L10.0805 2.84217L1.81348 10.8559L1.10317 12.5376C1.00482 12.7812 1.26709 13.0249 1.50204 12.9375L3.26963 12.2701ZM12.266 3.55985L13.0693 2.78655C13.4654 2.40255 13.4845 1.97352 13.1185 1.616L12.8152 1.3194C12.4519 0.964524 11.9983 0.998954 11.6049 1.37237L10.799 2.14301L12.266 3.55985Z" fill="white" fill-opacity="0.85"/>
</g>
<defs>
<clipPath id="clip0_211_988">
<rect width="17" height="14" fill="white"/>
</clipPath>
</defs>
</svg>
