<svg width="8" height="8" viewBox="0 0 8 8" fill="none" xmlns="http://www.w3.org/2000/svg">
<g clip-path="url(#clip0_281_827)">
<path d="M3.94514 7.99554C6.12403 7.99554 7.89172 6.20459 7.89172 3.9985C7.89172 1.79095 6.12403 0 3.94514 0C1.76623 0 0 1.79095 0 3.9985C0 6.20459 1.76623 7.99554 3.94514 7.99554ZM3.94514 7.09858C2.25352 7.09858 0.885313 5.71238 0.885313 3.9985C0.885313 2.28465 2.25352 0.896959 3.94514 0.896959C5.63674 0.896959 7.00494 2.28465 7.00494 3.9985C7.00494 5.71238 5.63674 7.09858 3.94514 7.09858Z" fill="#FF6259"/>
<path d="M2.74959 5.58339C2.85935 5.58339 2.94861 5.54781 3.02324 5.47071L3.94221 4.53817L4.86849 5.47071C4.9402 5.54483 5.02945 5.58339 5.1392 5.58339C5.34847 5.58339 5.5109 5.41882 5.5109 5.2068C5.5109 5.10599 5.46993 5.01703 5.39822 4.9444L4.47194 4.00445L5.39969 3.06003C5.47431 2.98442 5.51237 2.89695 5.51237 2.80058C5.51237 2.58709 5.34994 2.42401 5.14213 2.42401C5.03532 2.42401 4.95045 2.45959 4.87433 2.53669L3.94221 3.47367L3.01883 2.53817C2.94422 2.46404 2.85935 2.42846 2.74959 2.42846C2.54034 2.42846 2.37937 2.58858 2.37937 2.80207C2.37937 2.89844 2.41888 2.99184 2.49205 3.063L3.41979 4.00445L2.49205 4.94589C2.41888 5.01703 2.37937 5.10897 2.37937 5.2068C2.37937 5.41882 2.54034 5.58339 2.74959 5.58339Z" fill="#FF6259"/>
</g>
<defs>
<clipPath id="clip0_281_827">
<rect width="8" height="8" fill="white"/>
</clipPath>
</defs>
</svg>
