<svg width="20" height="21" viewBox="0 0 20 21" fill="none" xmlns="http://www.w3.org/2000/svg">
<g clip-path="url(#clip0_346_869)">
<path d="M8.2508 4.0328C8.82446 3.89852 9.41178 3.8314 10.0009 3.83278C15.8348 3.83278 19.1684 10.5 19.1684 10.5C18.6625 11.4464 18.0592 12.3375 17.3682 13.1586M11.7678 12.2668C11.5389 12.5125 11.2628 12.7095 10.9562 12.8462C10.6495 12.9828 10.3184 13.0563 9.98269 13.0622C9.64698 13.0681 9.31352 13.0064 9.0022 12.8806C8.69088 12.7549 8.40808 12.5677 8.17066 12.3303C7.93325 12.0929 7.74608 11.8101 7.62033 11.4988C7.49459 11.1874 7.43283 10.854 7.43876 10.5183C7.44468 10.1826 7.51816 9.8515 7.65481 9.54481C7.79146 9.23812 7.98849 8.9621 8.23413 8.7332M14.9514 15.4504C13.5267 16.5364 11.792 17.138 10.0009 17.1673C4.16711 17.1673 0.833496 10.5 0.833496 10.5C1.87016 8.5681 3.30799 6.88022 5.05052 5.5496L14.9514 15.4504Z" stroke="#F9F8EF" stroke-width="1.66678" stroke-linecap="round" stroke-linejoin="round"/>
<path d="M0.833496 1.33228L19.1684 19.6672" stroke="#F9F8EF" stroke-width="1.66678" stroke-linecap="round" stroke-linejoin="round"/>
</g>
<defs>
<clipPath id="clip0_346_869">
<rect width="20.0017" height="20.0017" fill="white" transform="translate(0 0.499023)"/>
</clipPath>
</defs>
</svg>
