<svg viewBox="0 0 90 19" fill="none" xmlns="http://www.w3.org/2000/svg">
<g opacity="1">
<path d="M65.6641 2.00391C65.7526 2.00391 65.8251 2.07384 65.8252 2.16016V4.24414C65.9894 4.30681 66.1053 4.46235 66.1055 4.64453V6.37793C66.2007 6.41306 66.2947 6.45111 66.3867 6.49219V4.89941C66.3867 4.71694 66.5035 4.56066 66.668 4.49805V2.5127C66.668 2.42639 66.7396 2.35665 66.8281 2.35645C66.9168 2.35645 66.9893 2.42626 66.9893 2.5127V4.49805C67.1537 4.56067 67.2705 4.71696 67.2705 4.89941V7.01172C67.3673 7.08459 67.4604 7.16208 67.5508 7.24219V5.87695C67.5509 5.69474 67.6678 5.5392 67.832 5.47656V3.13867C67.832 3.05224 67.9045 2.98242 67.9932 2.98242C68.0817 2.98261 68.1533 3.05235 68.1533 3.13867V5.47656C68.3177 5.53913 68.4344 5.69463 68.4346 5.87695V8.31152C68.5413 8.49222 68.6357 8.68128 68.7158 8.87695V6.85547C68.7158 6.67308 68.8317 6.51676 68.9961 6.4541V3.72559C68.9961 3.63915 69.0685 3.56934 69.1572 3.56934C69.2459 3.5694 69.3174 3.63919 69.3174 3.72559V6.4541C69.4819 6.5167 69.5986 6.67299 69.5986 6.85547V14.3086C69.5986 14.491 69.4819 14.6474 69.3174 14.71V17.3994C69.3174 17.4858 69.2459 17.5566 69.1572 17.5566C69.0685 17.5566 68.9961 17.4858 68.9961 17.3994V14.71C68.8318 14.6473 68.7158 14.4909 68.7158 14.3086V12.1504C68.6357 12.3462 68.5414 12.5359 68.4346 12.7168V15.3652C68.4346 15.5477 68.3178 15.704 68.1533 15.7666V18.084C68.1533 18.1703 68.0817 18.241 67.9932 18.2412C67.9045 18.2412 67.832 18.1704 67.832 18.084V15.7666C67.6676 15.704 67.5508 15.5477 67.5508 15.3652V13.7852C67.4604 13.8653 67.3673 13.9427 67.2705 14.0156V16.2256C67.2705 16.408 67.1537 16.5643 66.9893 16.627V18.5537C66.9893 18.6402 66.9168 18.7109 66.8281 18.7109C66.7396 18.7107 66.668 18.64 66.668 18.5537V16.627C66.5035 16.5643 66.3867 16.4081 66.3867 16.2256V14.5352C66.2947 14.5763 66.2007 14.6143 66.1055 14.6494V16.6367C66.1055 16.8191 65.9896 16.9754 65.8252 17.0381V18.8477C65.825 18.934 65.7526 19.0039 65.6641 19.0039C65.5755 19.0038 65.5041 18.9339 65.5039 18.8477V17.0381C65.3394 16.9755 65.2227 16.8192 65.2227 16.6367V14.8789C65.1299 14.8934 65.036 14.9051 64.9414 14.9141V16.6367C64.9414 16.8192 64.8247 16.9755 64.6602 17.0381V18.8477C64.66 18.934 64.5886 19.0039 64.5 19.0039C64.4114 19.0039 64.34 18.934 64.3398 18.8477V17.0381C64.1753 16.9755 64.0586 16.8192 64.0586 16.6367V14.9141C63.9641 14.9051 63.8701 14.8934 63.7773 14.8789V16.6367C63.7773 16.8192 63.6606 16.9755 63.4961 17.0381V18.8477C63.4959 18.9339 63.4245 19.0038 63.3359 19.0039C63.2474 19.0039 63.175 18.934 63.1748 18.8477V17.0381C63.0104 16.9754 62.8945 16.8191 62.8945 16.6367V14.6494C62.7993 14.6143 62.7053 14.5762 62.6133 14.5352V16.2256C62.6133 16.4081 62.4965 16.5643 62.332 16.627V18.5537C62.332 18.64 62.2604 18.7107 62.1719 18.7109C62.0832 18.7109 62.0107 18.6402 62.0107 18.5537V16.627C61.8463 16.5643 61.7295 16.408 61.7295 16.2256V14.0156C61.6326 13.9427 61.5396 13.8653 61.4492 13.7852V15.3652C61.4492 15.5477 61.3324 15.704 61.168 15.7666V18.084C61.168 18.1704 61.0955 18.2412 61.0068 18.2412C60.9183 18.241 60.8467 18.1703 60.8467 18.084V15.7666C60.6822 15.704 60.5654 15.5477 60.5654 15.3652V12.7168C60.4586 12.5359 60.3643 12.3462 60.2842 12.1504V14.3086C60.2842 14.4909 60.1682 14.6473 60.0039 14.71V17.3994C60.0039 17.4858 59.9315 17.5566 59.8428 17.5566C59.7541 17.5566 59.6826 17.4858 59.6826 17.3994V14.71C59.5181 14.6474 59.4014 14.491 59.4014 14.3086V6.85547C59.4014 6.67299 59.5181 6.5167 59.6826 6.4541V3.72559C59.6826 3.63918 59.7541 3.56939 59.8428 3.56934C59.9315 3.56934 60.0039 3.63915 60.0039 3.72559V6.4541C60.1683 6.51678 60.2842 6.6731 60.2842 6.85547V8.87695C60.3643 8.68128 60.4587 8.49222 60.5654 8.31152V5.87695C60.5656 5.69463 60.6823 5.53913 60.8467 5.47656V3.13867C60.8467 3.05234 60.9183 2.98259 61.0068 2.98242C61.0955 2.98242 61.168 3.05224 61.168 3.13867V5.47656C61.3322 5.5392 61.4491 5.69474 61.4492 5.87695V7.24219C61.5396 7.16208 61.6327 7.08459 61.7295 7.01172V4.89941C61.7295 4.71696 61.8463 4.56067 62.0107 4.49805V2.5127C62.0107 2.42626 62.0832 2.35645 62.1719 2.35645C62.2604 2.35668 62.332 2.42641 62.332 2.5127V4.49805C62.4965 4.56066 62.6133 4.71694 62.6133 4.89941V6.49219C62.7053 6.45111 62.7993 6.41306 62.8945 6.37793V4.64453C62.8947 4.46234 63.0106 4.30681 63.1748 4.24414V2.16016C63.1749 2.07384 63.2474 2.00391 63.3359 2.00391C63.4245 2.00403 63.496 2.07392 63.4961 2.16016V4.24414C63.6605 4.30671 63.7772 4.4622 63.7773 4.64453V6.14844C63.8701 6.13396 63.9641 6.12218 64.0586 6.11328V4.64453C64.0587 4.4622 64.1755 4.30671 64.3398 4.24414V2.16016C64.34 2.07384 64.4114 2.00391 64.5 2.00391C64.5886 2.00391 64.66 2.07384 64.6602 2.16016V4.24414C64.8245 4.30671 64.9413 4.4622 64.9414 4.64453V6.11328C65.036 6.12218 65.1299 6.13396 65.2227 6.14844V4.64453C65.2228 4.4622 65.3395 4.30671 65.5039 4.24414V2.16016C65.504 2.07391 65.5755 2.00402 65.6641 2.00391ZM11.3516 16.9961H9.67188V15.0518C9.62567 15.1249 9.57806 15.1979 9.52734 15.2686C9.0954 15.8763 8.53546 16.3561 7.84766 16.708C7.15966 17.06 6.38353 17.2363 5.51953 17.2363C4.4796 17.2363 3.54387 16.9797 2.71191 16.4678C1.87991 15.9558 1.21573 15.2599 0.719727 14.3799C0.23977 13.4839 0 12.4838 0 11.3799C3.00916e-05 10.26 0.239757 9.25983 0.719727 8.37988C1.21571 7.48398 1.87998 6.78052 2.71191 6.26855C3.54389 5.74057 4.47957 5.47658 5.51953 5.47656C6.36746 5.47656 7.13528 5.64452 7.82324 5.98047C8.51115 6.31642 9.07937 6.79604 9.52734 7.41992C9.57804 7.48635 9.62576 7.55492 9.67188 7.62402V0.00390625H11.3516V16.9961ZM18.6709 5.47656C19.5348 5.47659 20.3027 5.65198 20.9746 6.00391C21.6626 6.33991 22.2149 6.82034 22.6309 7.44434C22.6728 7.50337 22.7122 7.564 22.751 7.625V5.71582H24.4307V16.9961H22.751V15.082C22.712 15.1447 22.673 15.2077 22.6309 15.2686C22.2149 15.8924 21.6625 16.3805 20.9746 16.7324C20.3027 17.0684 19.5423 17.2363 18.6943 17.2363C17.6225 17.2363 16.6624 16.9797 15.8145 16.4678C14.9667 15.9399 14.2947 15.2362 13.7988 14.3564C13.3188 13.4764 13.0791 12.4839 13.0791 11.3799C13.0791 10.26 13.3189 9.25983 13.7988 8.37988C14.2947 7.48412 14.9667 6.78049 15.8145 6.26855C16.6625 5.74055 17.6149 5.47656 18.6709 5.47656ZM89.501 16.9961H87.8213V15.0518C87.7751 15.1249 87.7275 15.1979 87.6768 15.2686C87.2448 15.8763 86.6849 16.3561 85.9971 16.708C85.3091 17.06 84.5329 17.2363 83.6689 17.2363C82.629 17.2363 81.6933 16.9797 80.8613 16.4678C80.0293 15.9558 79.3651 15.2599 78.8691 14.3799C78.3892 13.4839 78.1494 12.4838 78.1494 11.3799C78.1494 10.26 78.3892 9.25983 78.8691 8.37988C79.3651 7.48399 80.0294 6.78051 80.8613 6.26855C81.6933 5.74057 82.629 5.47657 83.6689 5.47656C84.5169 5.47656 85.2847 5.64451 85.9727 5.98047C86.6606 6.31643 87.2288 6.79603 87.6768 7.41992C87.7275 7.48635 87.7752 7.55492 87.8213 7.62402V0.00390625H89.501V16.9961ZM31.7734 5.47656C32.3334 5.47656 32.8456 5.58013 33.3096 5.78809C33.7734 5.98003 34.2056 6.29183 34.6055 6.72363L33.502 7.90039C33.23 7.5964 32.9258 7.37995 32.5898 7.25195C32.2698 7.12395 31.9014 7.06055 31.4854 7.06055C30.6217 7.06064 29.9179 7.3481 29.374 7.92383C28.8301 8.4838 28.5576 9.31601 28.5576 10.4199V16.9961H26.8779V5.71582H28.5576V7.2002C28.6588 7.03211 28.7703 6.87272 28.8936 6.72363C29.5975 5.89182 30.5577 5.47663 31.7734 5.47656ZM37.1133 11.0488L42.6094 5.71582H45.8311L49.6963 14.3965L53.583 5.71582H55.4072L50.1514 16.9961H49.167L44.1855 6.20703L39.0557 11.1377L44.9375 16.9961H42.7051L37.1133 11.3799V16.9961H35.4336V0.00390625H37.1133V11.0488ZM76.4238 16.9961H74.7197V5.71582H76.4238V16.9961ZM58.334 4.50781C58.4225 4.50781 58.4949 4.57779 58.4951 4.66406V7.86328C58.6594 7.92592 58.7762 8.0814 58.7764 8.26367V12.7051C58.7762 12.8873 58.6594 13.0428 58.4951 13.1055V16.3438C58.4949 16.43 58.4225 16.5 58.334 16.5C58.2456 16.4998 58.174 16.4299 58.1738 16.3438V13.1055C58.0095 13.0428 57.8927 12.8874 57.8926 12.7051V8.26367C57.8927 8.08132 58.0095 7.92586 58.1738 7.86328V4.66406C58.174 4.57791 58.2456 4.508 58.334 4.50781ZM70.665 4.50781C70.7536 4.50781 70.826 4.57779 70.8262 4.66406V7.86328C70.9905 7.9259 71.1073 8.08137 71.1074 8.26367V12.7051C71.1073 12.8874 70.9905 13.0428 70.8262 13.1055V16.3438C70.826 16.43 70.7536 16.5 70.665 16.5C70.5767 16.4997 70.5051 16.4299 70.5049 16.3438V13.1055C70.3406 13.0428 70.2238 12.8874 70.2236 12.7051V8.26367C70.2238 8.08135 70.3406 7.92588 70.5049 7.86328V4.66406C70.5051 4.57795 70.5767 4.50807 70.665 4.50781ZM5.7832 7.06055C4.99938 7.06061 4.3032 7.24437 3.69531 7.6123C3.08747 7.98029 2.6078 8.49255 2.25586 9.14844C1.91992 9.7884 1.75195 10.5245 1.75195 11.3564C1.752 12.1883 1.91993 12.932 2.25586 13.5879C2.60777 14.2277 3.08752 14.7316 3.69531 15.0996C4.31931 15.4516 5.02362 15.6279 5.80762 15.6279C6.59162 15.6279 7.28007 15.4516 7.87207 15.0996C8.46381 14.7316 8.92777 14.2277 9.26367 13.5879C9.59956 12.932 9.76753 12.1882 9.76758 11.3564C9.76758 10.5084 9.59126 9.76402 9.23926 9.12402C8.90329 8.48416 8.43954 7.98026 7.84766 7.6123C7.25566 7.2443 6.5672 7.06055 5.7832 7.06055ZM18.9346 7.06055C18.1346 7.06056 17.4228 7.24433 16.7988 7.6123C16.1908 7.9803 15.703 8.49244 15.335 9.14844C14.983 9.7884 14.8066 10.5245 14.8066 11.3564C14.8067 12.1883 14.983 12.9245 15.335 13.5645C15.7029 14.2042 16.1985 14.7083 16.8223 15.0762C17.4463 15.4442 18.159 15.6279 18.959 15.6279C20.1268 15.6279 21.0627 15.236 21.7666 14.4521C22.4865 13.6682 22.8466 12.6363 22.8467 11.3564C22.8467 10.5084 22.6788 9.76402 22.3428 9.12402C22.0228 8.46805 21.5666 7.9643 20.9746 7.6123C20.3986 7.2443 19.7186 7.06055 18.9346 7.06055ZM83.9326 7.06055C83.1488 7.06061 82.4526 7.24436 81.8447 7.6123C81.2369 7.98029 80.7572 8.49254 80.4053 9.14844C80.0693 9.7884 79.9014 10.5245 79.9014 11.3564C79.9014 12.1883 80.0693 12.932 80.4053 13.5879C80.7572 14.2277 81.2369 14.7316 81.8447 15.0996C82.4687 15.4516 83.173 15.6279 83.957 15.6279C84.741 15.6279 85.4295 15.4516 86.0215 15.0996C86.6132 14.7316 87.0772 14.2277 87.4131 13.5879C87.749 12.932 87.9169 12.1882 87.917 11.3564C87.917 10.5084 87.7407 9.76402 87.3887 9.12402C87.0527 8.48417 86.5889 7.98026 85.9971 7.6123C85.4051 7.2443 84.7166 7.06055 83.9326 7.06055ZM57.1074 5.85742C57.1959 5.85764 57.2676 5.92835 57.2676 6.01465V14.9932C57.2676 15.0795 57.1959 15.1502 57.1074 15.1504C57.0187 15.1504 56.9463 15.0796 56.9463 14.9932V6.01465C56.9463 5.92822 57.0187 5.85742 57.1074 5.85742ZM71.8926 5.85742C71.9812 5.85742 72.0537 5.92822 72.0537 6.01465V14.9932C72.0537 15.0796 71.9812 15.1504 71.8926 15.1504C71.8041 15.1502 71.7324 15.0795 71.7324 14.9932V6.01465C71.7324 5.92836 71.8041 5.85765 71.8926 5.85742ZM64.5996 7.10352C62.6669 7.1037 61.0998 8.67081 61.0996 10.6035C61.0996 12.5364 62.6668 14.1033 64.5996 14.1035C66.5326 14.1035 68.0996 12.5365 68.0996 10.6035C68.0994 8.6707 66.5325 7.10352 64.5996 7.10352ZM56.1602 8.7627C56.2487 8.7627 56.3211 8.83266 56.3213 8.91895V12.0889C56.3211 12.1751 56.2487 12.2451 56.1602 12.2451C56.0718 12.2449 56.0002 12.1749 56 12.0889V8.91895C56.0002 8.8328 56.0718 8.76292 56.1602 8.7627ZM72.8398 8.7627C72.9282 8.76294 72.9998 8.83281 73 8.91895V12.0889C72.9998 12.1749 72.9282 12.2449 72.8398 12.2451C72.7513 12.2451 72.6789 12.1751 72.6787 12.0889V8.91895C72.6789 8.83266 72.7513 8.7627 72.8398 8.7627ZM64.5996 9.10352C65.4279 9.10352 66.0994 9.77527 66.0996 10.6035C66.0996 11.4319 65.428 12.1035 64.5996 12.1035C63.7713 12.1033 63.0996 11.4318 63.0996 10.6035C63.0998 9.77538 63.7715 9.1037 64.5996 9.10352ZM75.5596 0.916016C75.9115 0.916016 76.1914 1.02807 76.3994 1.25195C76.6233 1.47589 76.7353 1.75593 76.7354 2.0918C76.7354 2.41174 76.6233 2.69167 76.3994 2.93164C76.1914 3.15564 75.9116 3.26855 75.5596 3.26855C75.2396 3.26854 74.9672 3.15563 74.7432 2.93164C74.5195 2.69175 74.4072 2.41159 74.4072 2.0918C74.4073 1.75601 74.5193 1.47586 74.7432 1.25195C74.9672 1.02797 75.2396 0.916028 75.5596 0.916016Z" fill="#F9F8EF"/>
</g>
</svg>
