<svg width="17" height="14" viewBox="0 0 17 14" fill="none" xmlns="http://www.w3.org/2000/svg">
<g clip-path="url(#clip0_46_160)">
<path d="M0.661323 1.335H15.7315C16.1022 1.335 16.398 1.04043 16.398 0.672054C16.398 0.29919 16.1044 0.00286865 15.7315 0.00286865H0.661323C0.285582 0.00286865 0 0.301437 0 0.672054C0 1.03818 0.286705 1.335 0.661323 1.335ZM9.64003 9.77013H15.7315C16.1022 9.77013 16.398 9.47047 16.398 9.10099C16.398 8.72812 16.1044 8.43805 15.7315 8.43805H9.64003C9.26831 8.43805 8.97869 8.73145 8.97869 9.10099C8.97869 9.46708 9.2694 9.77013 9.64003 9.77013ZM0.661323 14H15.7315C16.1022 14 16.398 13.7003 16.398 13.3319C16.398 12.959 16.1044 12.6679 15.7315 12.6679H0.661323C0.285582 12.6679 0 12.9613 0 13.3319C0 13.6969 0.286705 14 0.661323 14Z" fill="#F9F8EF"/>
<path d="M0.956551 6.17132H15.4386C16.069 6.17132 16.398 5.8474 16.398 5.21704V4.55085C16.398 3.93186 16.069 3.60681 15.4386 3.60681H0.956551C0.331315 3.60681 0.00115204 3.93186 0.00115204 4.55085V5.21704C0.00115204 5.8474 0.331315 6.17132 0.956551 6.17132ZM0.956551 10.3858H7.03561C7.66594 10.3858 7.9961 10.0619 7.9961 9.43147V8.76533C7.9961 8.14631 7.66594 7.82127 7.03561 7.82127H0.956551C0.331315 7.82127 0.00115204 8.14631 0.00115204 8.76533V9.43147C0.00115204 10.0619 0.331315 10.3858 0.956551 10.3858Z" fill="#F9F8EF"/>
</g>
<defs>
<clipPath id="clip0_46_160">
<rect width="17" height="14" fill="white"/>
</clipPath>
</defs>
</svg>
