<svg width="17" height="13" viewBox="0 0 17 13" fill="none" xmlns="http://www.w3.org/2000/svg">
<g clip-path="url(#clip0_258_1542)">
<path d="M12.9457 3.62295C13.3865 3.61496 13.756 3.25799 13.756 2.8291C13.756 2.38955 13.3865 2.02725 12.9457 2.02725C12.5022 2.02725 12.1245 2.39754 12.1245 2.8291C12.1245 3.25799 12.5022 3.63094 12.9457 3.62295ZM12.9457 7.29651C13.3865 7.28587 13.756 6.9289 13.756 6.50002C13.756 6.06045 13.3865 5.69552 12.9457 5.69552C12.5022 5.69552 12.1245 6.06842 12.1245 6.50002C12.1245 6.9289 12.5022 7.30185 12.9457 7.29651ZM12.9457 10.9621C13.3865 10.9541 13.756 10.5971 13.756 10.1682C13.756 9.73135 13.3865 9.36374 12.9457 9.36374C12.5022 9.36374 12.1245 9.7367 12.1245 10.1682C12.1245 10.5971 12.5022 10.9701 12.9457 10.9621ZM16.1048 5.27193V4.05451H0.709018V5.27193H16.1048ZM16.1048 8.96149V7.74142H0.709018V8.96149H16.1048ZM2.40628 13H14.3884C15.9542 13 16.7974 12.1795 16.7974 10.6744V2.33094C16.7974 0.823155 15.9542 0.00532532 14.3884 0.00532532H2.40628C0.845893 0.00532532 0 0.820492 0 2.33094V10.6744C0 12.1849 0.845893 13 2.40628 13ZM2.56779 11.4256C1.94911 11.4256 1.62061 11.1246 1.62061 10.4932V2.51209C1.62061 1.8834 1.94911 1.57971 2.56779 1.57971H14.2269C14.8401 1.57971 15.174 1.8834 15.174 2.51209V10.4932C15.174 11.1246 14.8401 11.4256 14.2269 11.4256H2.56779Z" fill="currentColor" fill-opacity="1"/>
</g>
<defs>
<clipPath id="clip0_258_1542">
<rect width="17" height="13" fill="white"/>
</clipPath>
</defs>
</svg>
