<svg width="17" height="17" viewBox="0 0 17 17" fill="none" xmlns="http://www.w3.org/2000/svg">
<g clip-path="url(#clip0_211_990)">
<path d="M15.6224 4.71304V10.8686L14.2289 9.40065V4.87758C14.2289 4.30652 13.9422 4.03066 13.4159 4.03066H3.40789C2.87682 4.03066 2.59485 4.30652 2.59485 4.87758V12.1272C2.59485 12.7008 2.87682 12.9742 3.40789 12.9742H11.3872L11.3739 14.1695C11.3723 14.2515 11.378 14.3303 11.3927 14.4043H3.26925C1.92984 14.4043 1.20374 13.6638 1.20374 12.2918V4.71304C1.20374 3.34102 1.92984 2.60057 3.26925 2.60057H13.5545C14.8986 2.60057 15.6224 3.34344 15.6224 4.71304Z" fill="white" fill-opacity="0.85"/>
<path d="M13.3078 5.44138V8.44267C12.5789 7.79664 11.4438 8.29692 11.4279 9.32513L11.3978 12.0208H3.95071C3.67108 12.0208 3.51834 11.8586 3.51834 11.5659V5.44138C3.51834 5.14617 3.67108 4.98407 3.95071 4.98407H12.8731C13.1551 4.98407 13.3078 5.14617 13.3078 5.44138Z" fill="white" fill-opacity="0.85"/>
<path d="M12.2433 14.1865C12.2363 14.4866 12.5676 14.5954 12.7603 14.3873L13.5663 13.5283L14.4874 15.8852C14.5532 16.0497 14.7013 16.1538 14.8892 16.0836L15.4743 15.8513C15.6647 15.7787 15.6718 15.5706 15.6153 15.4375L14.6308 13.1L15.8174 13.0928C16.0994 13.0976 16.238 12.7975 16.0383 12.5846L12.7767 9.14365C12.5887 8.95008 12.3044 9.06381 12.2997 9.34208L12.2433 14.1865Z" fill="white" fill-opacity="0.85"/>
</g>
<defs>
<clipPath id="clip0_211_990">
<rect width="17" height="17" fill="white"/>
</clipPath>
</defs>
</svg>
