<svg width="15" height="15" viewBox="0 0 15 15" fill="none" xmlns="http://www.w3.org/2000/svg">
<g clip-path="url(#clip0_48_610)">
<path fill-rule="evenodd" clip-rule="evenodd" d="M2.99181 3.78125C3.18306 4.01182 3.39131 4.2275 3.61444 4.42725C3.777 3.77913 3.99056 3.17882 4.24769 2.64438C3.77634 2.96068 3.35332 3.34362 2.99181 3.78125ZM7.5 0.0625027C6.52306 0.0616643 5.55554 0.253469 4.6528 0.626941C3.75006 1.00041 2.92983 1.54822 2.23902 2.23903C1.54822 2.92983 1.00041 3.75007 0.626938 4.6528C0.253466 5.55554 0.0616614 6.52306 0.0624999 7.5C0.0624999 8.971 0.498702 10.409 1.31594 11.6321C2.13319 12.8551 3.29477 13.8084 4.65379 14.3714C6.01282 14.9343 7.50825 15.0816 8.95098 14.7946C10.3937 14.5076 11.719 13.7993 12.7591 12.7591C13.7993 11.719 14.5076 10.3937 14.7946 8.95099C15.0816 7.50825 14.9343 6.01282 14.3714 4.65379C13.8084 3.29477 12.8551 2.13319 11.6321 1.31595C10.409 0.498705 8.971 0.0625027 7.5 0.0625027ZM7.5 1.65625C6.99425 1.65625 6.34081 2.06638 5.76494 3.17244C5.45362 3.77169 5.20075 4.51863 5.03925 5.36438C5.81012 5.72245 6.65003 5.9074 7.5 5.90625C8.34997 5.9074 9.18988 5.72245 9.96075 5.36438C9.79925 4.51863 9.54638 3.77169 9.23506 3.17244C8.65813 2.06638 8.00575 1.65625 7.5 1.65625ZM11.3856 4.42725C11.2351 3.81313 11.023 3.21579 10.7523 2.64438C11.2241 2.961 11.6469 3.34457 12.0082 3.78125C11.8169 4.01182 11.6087 4.2275 11.3856 4.42725ZM10.1467 7.0155C9.30136 7.33696 8.40438 7.50116 7.5 7.5C6.59597 7.50103 5.69937 7.33683 4.85437 7.0155C4.81305 7.94164 4.88512 8.86936 5.069 9.778C5.834 10.0234 6.65212 10.1563 7.5 10.1563C8.34787 10.1563 9.166 10.0234 9.93313 9.778C10.1163 8.86927 10.1876 7.94156 10.1456 7.0155H10.1467ZM11.6692 8.98113C11.7711 8.06024 11.7775 7.13128 11.6884 6.20906C12.1187 5.91581 12.5171 5.57794 12.8752 5.20288C13.1996 5.96181 13.359 6.78105 13.3427 7.60625C12.8496 8.13784 12.2867 8.60001 11.6692 8.98007V8.98113ZM9.3615 11.5683C8.13236 11.811 6.86764 11.811 5.6385 11.5683C5.67994 11.6576 5.72137 11.7447 5.766 11.8276C6.33869 12.9336 6.99319 13.3438 7.5 13.3438C8.00681 13.3438 8.65919 12.9336 9.23506 11.8276C9.27756 11.7447 9.32006 11.6576 9.36256 11.5683H9.3615ZM10.7534 12.3546C10.9649 11.9099 11.1398 11.4486 11.2761 10.9754C11.7617 10.7661 12.2249 10.5186 12.6648 10.2359C12.2114 11.0891 11.5545 11.8172 10.7523 12.3556L10.7534 12.3546ZM4.24769 12.3546C4.0358 11.9099 3.86061 11.4487 3.72388 10.9754C3.24142 10.7676 2.77695 10.5202 2.33519 10.2359C2.78858 11.0891 3.4455 11.8161 4.24769 12.3546ZM1.65625 7.60625C2.14819 8.1375 2.71131 8.59969 3.32969 8.98007C3.22787 8.05952 3.22146 7.13092 3.31056 6.20906C2.88104 5.91586 2.48328 5.57864 2.12375 5.20288C1.79933 5.96181 1.63998 6.78105 1.65625 7.60625Z" fill="#F9F8EF"/>
</g>
<defs>
<clipPath id="clip0_48_610">
<rect width="15" height="15" fill="white"/>
</clipPath>
</defs>
</svg>
